<?xml version="1.0" encoding="utf-8"?>
<!-- Generator: Adobe Illustrator 27.3.1, SVG Export Plug-In . SVG Version: 6.00 Build 0)  -->
<svg version="1.1" xmlns="http://www.w3.org/2000/svg" xmlns:xlink="http://www.w3.org/1999/xlink" x="0px" y="0px"
	 viewBox="0 0 371.3 371.3" style="enable-background:new 0 0 371.3 371.3;" xml:space="preserve">
<style type="text/css">
	.st0{fill:#EB750F;}
	.st1{fill:#C26117;}
	.st2{fill:#616160;}
	.st3{fill:#6AB42D;}
</style>
<g id="Capa_1">
</g>
<g id="Capa_2">
	<g>
		<g>
			<path class="st0" d="M371.3,182.8v117.1c0,39.5-32,71.4-71.4,71.4H174.2H71.4C32,371.3,0,339.4,0,299.9V71.4C0,32,32,0,71.4,0
				h228.5c39.4,0,71.4,32,71.4,71.4v105.7V182.8z"/>
		</g>
		<g>
			<path class="st1" d="M248.5,94.5C248.5,94.4,248.5,94.4,248.5,94.5C248.5,94.4,248.5,94.4,248.5,94.5c-0.4-0.1-0.7-0.2-0.6-0.7
				l123.4,89v117.1c0,39.5-32,71.4-71.4,71.4H174.2c-21.7-23.6-43.4-47.3-65.2-70.9v0c6.9,3,14.2,4.8,21.8,4.9
				c35.1,0.4,70.3,0.1,105.4,0.1c12.7,0,24.6-3.2,35.5-9.8c11-6.6,19.6-15.5,25.5-27c5.9-11.5,7.7-23.9,8.1-36.5
				c0.3-9.4,0.3-18.8-0.5-28.3c-0.7-7.7-0.9-15.3-3.8-22.6c-2.7-6.9-6.4-13-13.3-16.3c-8.3-4-17.2-5.2-26.2-5.3
				c-2.2,0-2.6-0.8-2.6-2.8c0.1-9.7,0.1-19.4,0-29.2c0-4.4-0.8-8.8-1.7-13.1c-1.5-7-4.6-13.2-8-19.3l0.2,0
				C249,95,248.8,94.7,248.5,94.5z"/>
			<g id="XMLID_00000031191808709796319890000005246676358046486416_">
				<g>
					<path class="st1" d="M245.5,228.1c1.2,7.9-7.2,17.4-15.4,17.5c-14.9,0.1-29.9,0-44.8,0c-14.6,0-29.2-0.1-43.7,0.1
						c-5.6,0.1-12.3-4.7-14-8.6c-3-6.9-2.6-13.4,2.4-19.2c3.6-4.2,8.5-5.5,13.9-5.5c28,0,56.1-0.1,84.1,0.1
						C238.3,212.5,244,217.9,245.5,228.1z"/>
					<path class="st1" d="M209.8,133.9c5.2,8.8,0.7,22.3-10.3,24.2c-10.9,2-21.7-0.1-28.6,0.7c-12.8,0-21.8-0.1-30.7,0
						c-6.9,0.1-13.5-7.8-14.3-13.3c-1.3-8.5,2.9-15.9,10-18.4c2.3-0.8,4.7-1.3,7.1-1.3c16.2,0,32.4-0.1,48.6,0
						C198.7,126,205.7,127,209.8,133.9z"/>
					<path class="st2" d="M304.8,203.8c0.8,9.4,0.8,18.9,0.5,28.3c-0.4,12.6-2.2,25-8.1,36.5c-5.9,11.5-14.6,20.4-25.5,27
						c-10.9,6.6-22.7,9.8-35.5,9.8c-35.1,0-70.3,0.3-105.4-0.1c-7.6-0.1-14.9-1.9-21.8-4.9c-3.6-1.6-7.2-3.4-10.6-5.5
						c-0.5-0.3-1.1-0.5-1.7-0.8l0,0.1c-0.3-0.6-0.8-0.9-1.5-1c-0.1-0.4-0.6-0.4-0.9-0.5c-12.2-9.7-21.2-21.6-25.5-36.9
						c-1.7-6.1-2.9-12.3-2.9-18.8c0-35.2-0.3-70.3,0.1-105.5c0.2-14.1,5.3-27.1,13.7-38.5c10-13.5,23.7-21.5,39.8-25.3
						c5.3-1.2,11-1.6,16.5-1.6c19.7-0.2,39.4-0.4,59.1,0c9.2,0.2,18.2,2.3,26.7,6.5c10.4,5.1,18.5,12.6,25.9,21.1
						c-0.1,0.5,0.2,0.7,0.6,0.7c0.2,0.2,0.5,0.5,0.8,0.8l-0.2,0c3.4,6.2,6.6,12.4,8,19.3c0.9,4.3,1.7,8.7,1.7,13.1
						c0.1,9.7,0.1,19.4,0,29.2c0,2,0.4,2.8,2.6,2.8c9.1,0.1,18,1.3,26.2,5.3c6.9,3.3,10.6,9.5,13.3,16.3
						C303.9,188.5,304.1,196.1,304.8,203.8z M230.1,245.5c8.1,0,16.5-9.6,15.4-17.5c-1.5-10.1-7.2-15.6-17.5-15.7
						c-28-0.2-56.1-0.1-84.1-0.1c-5.4,0-10.2,1.3-13.9,5.5c-5,5.8-5.4,12.2-2.4,19.2c1.7,3.9,8.4,8.7,14,8.6
						c14.6-0.2,29.1-0.1,43.7-0.1C200.2,245.5,215.2,245.6,230.1,245.5z M199.5,158.2c11-2,15.5-15.5,10.3-24.2
						c-4.1-6.9-11.1-7.9-18.2-8c-16.2-0.2-32.4-0.1-48.6,0c-2.4,0-4.8,0.6-7.1,1.3c-7.2,2.5-11.3,9.9-10,18.4
						c0.8,5.5,7.4,13.4,14.3,13.3c9-0.1,17.9,0,30.7,0C177.9,158.1,188.7,160.1,199.5,158.2z"/>
				</g>
				<g>
				</g>
			</g>
			<path class="st3" d="M248.5,94.5C248.5,94.4,248.5,94.4,248.5,94.5C248.5,94.4,248.5,94.4,248.5,94.5z"/>
			<path class="st3" d="M95.3,293.1c0,0.1,0.1,0.2,0.1,0.3c0,0-0.2-0.1-0.2-0.1L95.3,293.1C95.3,293.1,95.3,293.1,95.3,293.1z"/>
		</g>
	</g>
</g>
</svg>
