<?xml version="1.0" encoding="utf-8"?>
<!-- Generator: Adobe Illustrator 27.3.1, SVG Export Plug-In . SVG Version: 6.00 Build 0)  -->
<svg version="1.1" id="Capa_1" xmlns="http://www.w3.org/2000/svg" xmlns:xlink="http://www.w3.org/1999/xlink" x="0px" y="0px"
	 viewBox="0 0 193.3 72.3" style="enable-background:new 0 0 193.3 72.3;" xml:space="preserve">
<style type="text/css">
	.st0{fill:#97C21E;}
</style>
<path class="st0" d="M128.2,13.7c0.1-0.1,0-0.3-0.1-0.2c-3.5,1.7-12.2,6.5-13.6,11.5c-1.7,6.2-3.4-11.3,3.7-15.3
	c7.1-4,22.1-6,24.9-5.1s0,2.8,0,2.8s-2.6,1.7-1.7,4.3c0.9,2.6,1.4,7.1-0.9,10.8s-10.2,6.8-13,6.8c-2.8,0-7.9,12.8-8.8,16.2
	c-0.7,2.8-1.6,11.8-1.9,14.7c-0.1,0.6-0.4,1.2-0.9,1.5c-0.7,0.4-7.1,1.9-7.7-0.9c-0.6-2.8-12.8-37.4-17-41.1s-5.4-6-4.5-8.2
	s2.8-2.8,4.5-2.3c7.7,2.3,10.7,9.7,13.3,15.1c2.3,4.9,6.3,18.3,7,20.8c0,0.1,0.2,0.1,0.2,0C112.8,41.8,120.6,19.8,128.2,13.7z"/>
<path class="st0" d="M135.7,59.9h0.8c1.7,0,3-1.3,3-3V35.1c0-1.7-1.3-3-3-3h-0.8c-1.7,0-3,1.3-3,3v21.8
	C132.7,58.6,134.1,59.9,135.7,59.9z"/>
<g>
	<path class="st0" d="M83.6,59.9h0.8c1.7,0,3-1.3,3-3v-14c0-1.7-1.3-3-3-3h-0.8c-1.7,0-3,1.3-3,3v14C80.6,58.6,81.9,59.9,83.6,59.9z
		"/>
	<path class="st0" d="M83.6,39h0.8c1.7,0,3-1.3,3-3v-0.9c0-1.7-1.3-3-3-3h-0.8c-1.7,0-3,1.3-3,3V36C80.6,37.7,81.9,39,83.6,39z"/>
</g>
<path class="st0" d="M76,59.3l0.6-0.5c1.3-1.1,1.4-3,0.4-4.2L66.2,41.7c-1.1-1.3-3-1.4-4.2-0.4l-0.6,0.5c-1.3,1.1-1.4,3-0.4,4.2
	l10.8,12.9C72.8,60.2,74.7,60.4,76,59.3z"/>
<path class="st0" d="M61.3,58.8l0.6,0.5c1.3,1.1,3.2,0.9,4.2-0.4L77,46.1c1.1-1.3,0.9-3.2-0.4-4.2L76,41.3c-1.3-1.1-3.2-0.9-4.2,0.4
	L61,54.5C59.9,55.8,60.1,57.7,61.3,58.8z"/>
<path class="st0" d="M30.3,32.1h-0.8c-0.8,0-1.6,0.3-2.1,0.9l0,0l-8.2,8.2l-8.1-8.1l-0.2-0.2c-0.5-0.5-1.2-0.8-2-0.8H8
	c-1.7,0-3,1.3-3,3v1.6v20.2c0,1.7,1.3,3,3,3h0.8c1.7,0,3-1.3,3-3V43.5l4.2,4.2l1.1,1.1c0.6,0.6,1.5,0.9,2.4,0.9c0.1,0,0.2,0,0.2,0
	c0.6-0.1,1.1-0.4,1.5-0.8l1.1-1.1l4.3-4.3v13.4c0,1.7,1.3,3,3,3h0.8c1.7,0,3-1.3,3-3V36.7v-1.5C33.3,33.5,31.9,32.1,30.3,32.1z"/>
<path class="st0" d="M184.3,40.8h-0.8c-0.1,0-0.2,0-0.2,0.1c-1.8-1.4-4.1-2.3-6.6-2.3c-5.9,0-10.7,4.8-10.7,10.7
	c0,5.9,4.8,10.7,10.7,10.7c1.5,0,2.8-0.3,4.1-0.8c-0.3,2-2,3.5-4.1,3.5c-0.7,0-1.4-0.2-1.9-0.5c-0.8-0.4-1.8-0.2-2.4,0.5l-0.9,1
	l-0.5,0.5c-0.9,1-0.6,2.4,0.6,3.1c1.5,0.8,3.3,1.3,5.1,1.3c5.9,0,10.7-4.8,10.7-10.7V43.8C187.3,42.2,185.9,40.8,184.3,40.8z
	 M176.6,53.5c-2.3,0-4.2-1.9-4.2-4.2c0-2.3,1.9-4.2,4.2-4.2c2.3,0,4.2,1.9,4.2,4.2C180.8,51.6,178.9,53.5,176.6,53.5z"/>
<path class="st0" d="M152.6,38.6c-5.9,0-10.7,4.8-10.7,10.7c0,5.9,4.8,10.7,10.7,10.7s10.7-4.8,10.7-10.7
	C163.2,43.4,158.5,38.6,152.6,38.6z M152.6,53.5c-2.3,0-4.2-1.9-4.2-4.2c0-2.3,1.9-4.2,4.2-4.2s4.2,1.9,4.2,4.2
	C156.7,51.6,154.9,53.5,152.6,53.5z"/>
<path class="st0" d="M54.8,39.9H54c-0.5,0-1.1,0.2-1.5,0.4c-1.6-1-3.6-1.6-5.7-1.6c-5.9,0-10.7,4.8-10.7,10.7
	C36.2,55.2,41,60,46.8,60c1.8,0,3.4-0.4,4.9-1.2c0.6,0.7,1.4,1.1,2.3,1.1h0.8c1.7,0,3-1.3,3-3v-14C57.8,41.2,56.5,39.9,54.8,39.9z
	 M46.8,53.5c-2.3,0-4.2-1.9-4.2-4.2c0-2.3,1.9-4.2,4.2-4.2S51,47,51,49.3C51,51.6,49.2,53.5,46.8,53.5z"/>
</svg>
