<?xml version="1.0" encoding="utf-8"?>
<!-- Generator: Adobe Illustrator 27.3.1, SVG Export Plug-In . SVG Version: 6.00 Build 0)  -->
<svg version="1.1" id="Capa_1" xmlns="http://www.w3.org/2000/svg" xmlns:xlink="http://www.w3.org/1999/xlink" x="0px" y="0px"
	 viewBox="0 0 120.2 144" style="enable-background:new 0 0 120.2 144;" xml:space="preserve">
<style type="text/css">
	.st0{fill:#FFFFFF;}
</style>
<path class="st0" d="M42.1,110.1c0,9.7,0,19.4,0,29.2c-2.9,0-5.7,0-8.6,0c0-0.4-0.1-0.8-0.1-1.3c0-9.4,0-18.8,0-28.2
	c0-0.9-0.3-1.5-1.2-1.9c-5.6-3-8.9-7.7-9.7-14c-0.1-1.1-0.5-1.5-1.6-1.8c-4.2-1.1-7.5-3.5-10-7C7,79.3,6.4,73.2,9.3,66.8
	C9.8,66,9.4,65.5,9,65c-4.4-6.4-4.8-13.1-1.1-19.9c1.5-2.7,3.7-4.8,6.3-6.4c0.6-0.4,0.9-0.8,1-1.6c0.2-10,7.2-17.4,17.2-18.3
	c1-0.1,1.5-0.4,2-1.3c4.8-8.9,16-12.1,24.7-7.2c0.7,0.4,1.3,0.3,2,0c8.8-4.5,18.7-2,24.2,6.2c0.3,0.4,0.5,0.8,0.7,1.2
	c0.3,0.8,0.9,1.1,1.7,1.1c8.6,0.6,15.2,6.3,17,14.7c0.2,1.1,0.3,2.3,0.3,3.5c0,0.7,0.2,1.2,0.9,1.6c5.4,3.4,8.4,8.3,8.8,14.7
	c0.3,4.3-0.9,8.2-3.5,11.7c-0.6,0.8-0.7,1.5-0.2,2.5c4,8.7,0.1,19.6-9.2,23.8c-0.9,0.4-1.8,0.8-2.7,0.9c-1,0.2-1.4,0.7-1.5,1.6
	c-0.6,5.6-3.4,10-8,13.1c-1.3,0.9-1.7,1.7-1.7,3.2c0.1,9,0,18.1,0.1,27.1c0,0.7,0,1.4,0,2.2c-2.8,0-5.4,0-8,0
	c-0.2,0-0.5-0.4-0.6-0.6c-0.1-0.5-0.1-1-0.1-1.5c0-8.8,0-17.5,0-26.3c0-0.7-0.2-1-1-1.1c-1.4-0.2-2.8-0.6-4.3-0.8
	c-0.7-0.1-1.6-0.1-2.1,0.3c-5.4,4.5-18.4,4.6-24.2-0.1c-0.4-0.3-1-0.4-1.5-0.3C45,109.3,43.7,109.7,42.1,110.1z M48.2,40.4
	c-3.5-6-8.6-8.5-15.3-8c0,0.3,0,0.5,0,0.7c0.5,5.8,3.1,10.3,8.5,13c0.9,0.4,1.1,0.9,0.7,1.8c-1.4,2.8-1.6,5.8-0.5,8.7
	c2.1,5.8,4.3,11.6,6.4,17.4c1.2,3.4,2.3,6.8,3.4,10.2c0.3,0.8,0.7,1.5,1.2,2.1c3.7,4.1,11.2,4.1,14.9,0c0.7-0.7,1.1-1.7,1.4-2.7
	c0.6-1.8,0.9-3.6,1.6-5.3c2.4-6.3,5-12.5,7.3-18.9c1.4-3.8,2.1-7.8,0.3-11.7c-0.1-0.2,0-0.6,0-0.8c6.3-2.4,9.7-7,10.4-13.6
	c0.1-1-0.5-1-1.1-1c-6-0.1-10.7,2.3-13.8,7.5c-0.7,1.2-1.1,1-2.1,0.4c-4.5-3.1-9.4-3.9-14.8-3.2C53.7,37.5,50.9,38.6,48.2,40.4z"/>
</svg>
